<svg width="20" height="20" viewBox="0 0 20 20" fill="none" xmlns="http://www.w3.org/2000/svg">
<path d="M17.842 9.64996L10.342 2.14996C10.042 1.84996 9.62532 1.66663 9.16699 1.66663H3.33366C2.41699 1.66663 1.66699 2.41663 1.66699 3.33329V9.16662C1.66699 9.62496 1.85033 10.0416 2.15866 10.35L9.65866 17.85C9.95866 18.15 10.3753 18.3333 10.8337 18.3333C11.292 18.3333 11.7087 18.15 12.0087 17.8416L17.842 12.0083C18.1503 11.7083 18.3337 11.2916 18.3337 10.8333C18.3337 10.375 18.142 9.94996 17.842 9.64996ZM4.58366 5.83329C3.89199 5.83329 3.33366 5.27496 3.33366 4.58329C3.33366 3.89163 3.89199 3.33329 4.58366 3.33329C5.27532 3.33329 5.83366 3.89163 5.83366 4.58329C5.83366 5.27496 5.27532 5.83329 4.58366 5.83329Z" fill="#A76E63"/>
</svg>
